<svg xmlns="http://www.w3.org/2000/svg" version="1.1" viewBox="0.00 0.00 662.00 488.00">
  <style>
    path {
      fill: #000000;
    }
  </style>
  <g>
    <path
      d="M 330.15 223.93   Q 326.62 225.56 323.21 227.47   Q 305.81 237.24 288.34 246.96   Q 287.91 247.20 287.77 247.68   Q 284.54 258.43 281.33 269.21   C 275.35 289.25 267.93 308.70 258.31 327.30   C 246.78 349.60 230.12 370.87 208.60 384.10   C 177.97 402.92 155.45 382.13 162.06 349.49   C 168.59 317.34 188.50 293.63 216.68 274.39   C 235.56 261.49 255.99 250.64 275.93 239.65   A 2.55 2.53 84.2 0 0 277.15 238.14   Q 280.54 226.66 281.78 214.74   C 282.14 211.25 281.62 207.39 281.71 203.77   Q 281.78 200.95 279.79 202.95   Q 279.73 203.01 278.91 203.63   C 265.80 213.47 253.66 224.46 240.54 234.28   C 234.56 238.76 227.94 243.27 220.70 245.36   C 212.01 247.86 204.55 244.88 203.34 235.25   C 202.73 230.37 204.50 224.96 206.57 220.54   Q 212.65 207.55 218.88 194.63   Q 219.22 193.93 220.00 192.80   C 221.38 190.83 222.24 187.41 224.34 186.23   C 228.26 184.02 232.72 186.97 233.39 190.92   Q 233.75 193.01 232.35 195.82   Q 227.14 206.26 222.08 216.76   C 220.28 220.50 215.99 228.77 216.51 232.83   A 1.27 1.27 0.0 0 0 218.33 233.81   C 220.70 232.65 223.15 231.58 225.32 230.06   C 238.84 220.60 249.32 211.34 260.96 201.45   C 268.55 195.00 289.64 179.27 293.56 199.78   C 295.48 209.79 293.85 220.38 291.62 230.16   A 0.37 0.37 0.0 0 0 292.16 230.56   Q 314.59 217.85 337.26 205.74   C 338.98 204.82 339.53 201.86 340.09 200.52   Q 361.48 149.20 371.60 125.76   Q 391.66 79.30 397.45 66.73   C 401.17 58.67 411.57 65.59 408.21 73.18   Q 380.63 135.39 354.79 197.61   Q 354.25 198.92 355.24 197.91   C 362.25 190.81 371.09 186.19 381.25 187.75   Q 389.00 188.95 394.28 195.47   C 400.91 203.64 401.63 211.90 402.86 221.98   Q 403.57 227.79 406.23 231.26   C 408.73 234.51 415.35 232.03 418.15 230.16   C 427.38 223.99 433.43 216.34 440.04 207.60   C 444.33 201.93 446.64 195.56 449.32 189.06   Q 449.68 188.19 451.45 186.12   Q 451.74 185.78 452.18 185.65   C 459.08 183.56 462.65 189.68 459.98 195.67   Q 453.17 210.89 447.42 225.81   Q 446.80 227.43 448.22 226.43   Q 465.81 214.06 484.67 203.65   C 491.59 199.83 498.09 210.45 490.75 214.50   Q 465.52 228.43 440.67 247.18   Q 438.77 248.62 438.16 250.32   Q 427.62 279.77 416.44 308.98   C 407.49 332.38 396.77 356.55 384.12 377.04   C 378.05 386.87 362.71 402.96 351.45 388.07   C 347.06 382.26 346.13 375.46 345.99 368.00   Q 345.78 357.15 350.25 342.17   Q 358.24 315.39 375.15 293.15   C 389.84 273.81 407.78 257.24 426.53 242.57   Q 428.57 240.97 429.32 238.78   Q 429.58 238.02 428.95 238.51   C 419.65 245.81 405.58 251.16 396.94 240.75   C 391.66 234.40 390.31 223.03 389.30 214.26   Q 388.58 208.00 384.48 203.45   C 373.86 191.66 359.27 212.65 354.46 219.96   C 348.63 228.82 343.68 235.63 337.14 242.38   Q 331.79 247.91 325.73 243.77   C 323.73 242.40 324.05 239.68 324.89 237.49   Q 326.76 232.58 328.87 227.77   C 329.24 226.92 329.39 225.25 330.38 224.24   Q 331.13 223.47 330.15 223.93   Z   M 201.03 374.31   C 228.36 357.38 245.32 329.86 257.05 300.69   Q 265.86 278.78 272.25 256.47   Q 272.47 255.73 271.81 256.14   Q 268.74 258.10 265.56 259.75   C 259.01 263.16 252.67 266.88 246.25 270.52   C 212.94 289.36 181.14 313.37 173.99 353.65   C 172.80 360.37 172.82 368.83 177.35 374.42   C 183.23 381.67 193.96 378.68 201.03 374.31   Z   M 417.96 269.26   Q 418.71 267.20 419.55 265.14   Q 419.83 264.46 419.28 264.94   Q 405.15 277.11 395.55 287.54   C 374.53 310.39 357.43 340.88 358.85 373.24   C 359.01 376.74 360.25 381.48 364.28 380.40   C 366.82 379.73 368.52 376.83 370.04 374.53   Q 383.87 353.59 393.30 332.54   C 401.88 313.39 410.02 291.08 417.96 269.26   Z" />
    <path
      d="M 464.33 148.41   C 469.29 150.93 472.04 155.48 470.31 160.78   C 467.97 167.92 457.98 169.69 453.41 163.63   C 450.76 160.09 450.78 155.63 453.71 152.11   C 456.64 148.60 459.58 146.00 464.33 148.41   Z" />
  </g>
</svg>